<svg xmlns="http://www.w3.org/2000/svg" width="800" height="1800" viewBox="0 0 800 1800">
  <!-- Component Sheet — wider format for reference -->
  <rect width="800" height="1800" fill="#0d0e10"/>

  <!-- Title -->
  <text x="32" y="48" font-family="Space Grotesk" font-weight="700" font-size="28" fill="#fdfbfe">Component Library — Limer's Capital</text>
  <text x="32" y="72" font-family="Inter" font-size="14" fill="#ababad">Dark Theme | 390px Mobile Frame | Design Tokens from tokens.json</text>

  <!-- ==================== SECTION: BUTTONS ==================== -->
  <g id="buttons" transform="translate(32,112)">
    <text x="0" y="0" font-family="Space Grotesk" font-weight="600" font-size="18" fill="#fdfbfe">Buttons</text>
    <line x1="0" y1="10" x2="736" y2="10" stroke="#47484a66" stroke-width="1"/>

    <!-- Primary Button -->
    <text x="0" y="40" font-family="Inter" font-weight="500" font-size="12" fill="#ababad">Primary (CTA)</text>
    <rect x="0" y="50" width="160" height="48" rx="6" fill="#00ffa3"/>
    <text x="80" y="80" font-family="Inter" font-weight="600" font-size="15" fill="#0d0e10" text-anchor="middle">Buy SOL</text>

    <!-- Primary Pressed -->
    <text x="180" y="40" font-family="Inter" font-weight="500" font-size="12" fill="#ababad">Primary (Pressed)</text>
    <rect x="180" y="50" width="160" height="48" rx="6" fill="#00ef99"/>
    <text x="260" y="80" font-family="Inter" font-weight="600" font-size="15" fill="#0d0e10" text-anchor="middle">Buy SOL</text>

    <!-- Secondary Button -->
    <text x="360" y="40" font-family="Inter" font-weight="500" font-size="12" fill="#ababad">Secondary</text>
    <rect x="360" y="50" width="160" height="48" rx="6" fill="transparent" stroke="#00ffa3" stroke-width="1.5"/>
    <text x="440" y="80" font-family="Inter" font-weight="600" font-size="15" fill="#00ffa3" text-anchor="middle">Connect</text>

    <!-- Ghost Button -->
    <text x="540" y="40" font-family="Inter" font-weight="500" font-size="12" fill="#ababad">Ghost</text>
    <rect x="540" y="50" width="120" height="48" rx="6" fill="transparent"/>
    <text x="600" y="80" font-family="Inter" font-weight="500" font-size="15" fill="#ababad" text-anchor="middle">Dismiss</text>

    <!-- Icon Button -->
    <text x="680" y="40" font-family="Inter" font-weight="500" font-size="12" fill="#ababad">Icon (48x48)</text>
    <rect x="680" y="50" width="48" height="48" rx="12" fill="#1e2022"/>
    <line x1="696" y1="68" x2="720" y2="68" stroke="#fdfbfe" stroke-width="2" stroke-linecap="round"/>
    <line x1="696" y1="74" x2="720" y2="74" stroke="#fdfbfe" stroke-width="2" stroke-linecap="round"/>
    <line x1="696" y1="80" x2="712" y2="80" stroke="#fdfbfe" stroke-width="2" stroke-linecap="round"/>

    <!-- Sell / Danger -->
    <text x="0" y="126" font-family="Inter" font-weight="500" font-size="12" fill="#ababad">Sell / Danger</text>
    <rect x="0" y="136" width="160" height="48" rx="6" fill="#ff716c"/>
    <text x="80" y="166" font-family="Inter" font-weight="600" font-size="15" fill="#0d0e10" text-anchor="middle">Sell SOL</text>

    <!-- Pill button -->
    <text x="180" y="126" font-family="Inter" font-weight="500" font-size="12" fill="#ababad">Pill</text>
    <rect x="180" y="140" width="100" height="36" rx="18" fill="#00ffa3"/>
    <text x="230" y="163" font-family="Inter" font-weight="600" font-size="13" fill="#0d0e10" text-anchor="middle">Install</text>

    <!-- Outline pill -->
    <text x="300" y="126" font-family="Inter" font-weight="500" font-size="12" fill="#ababad">Pill Outline</text>
    <rect x="300" y="140" width="100" height="36" rx="18" fill="transparent" stroke="#47484a66" stroke-width="1"/>
    <text x="350" y="163" font-family="Inter" font-weight="500" font-size="13" fill="#ababad" text-anchor="middle">Dismiss</text>
  </g>

  <!-- ==================== SECTION: CARDS ==================== -->
  <g id="cards" transform="translate(32,320)">
    <text x="0" y="0" font-family="Space Grotesk" font-weight="600" font-size="18" fill="#fdfbfe">Cards</text>
    <line x1="0" y1="10" x2="736" y2="10" stroke="#47484a66" stroke-width="1"/>

    <!-- Price Row Card -->
    <text x="0" y="40" font-family="Inter" font-weight="500" font-size="12" fill="#ababad">Price Row (56px height)</text>
    <g transform="translate(0,50)">
      <rect width="358" height="56" rx="12" fill="#121316"/>
      <circle cx="28" cy="28" r="16" fill="#9945FF" opacity="0.2"/>
      <text x="28" y="33" font-family="Inter" font-weight="700" font-size="12" fill="#9945FF" text-anchor="middle">S</text>
      <text x="52" y="22" font-family="Inter" font-weight="500" font-size="14" fill="#fdfbfe">Solana</text>
      <text x="52" y="38" font-family="Inter" font-size="12" fill="#ababad">SOL</text>
      <polyline points="220,34 228,28 236,30 244,22 252,18 260,24 268,16" stroke="#00ffa3" stroke-width="1.5" fill="none"/>
      <text x="290" y="22" font-family="DM Mono" font-size="13" fill="#fdfbfe" text-anchor="end">$148.32</text>
      <text x="342" y="22" font-family="DM Mono" font-size="11" fill="#00ffa3" text-anchor="end">+5.2%</text>
    </g>

    <!-- Module Card -->
    <text x="0" y="140" font-family="Inter" font-weight="500" font-size="12" fill="#ababad">Module Card (Learn)</text>
    <g transform="translate(0,150)">
      <rect width="358" height="90" rx="12" fill="#121316" stroke="#47484a66" stroke-width="1"/>
      <rect x="16" y="16" width="48" height="48" rx="12" fill="#00ffa3" opacity="0.1"/>
      <text x="40" y="46" font-family="Space Grotesk" font-weight="700" font-size="20" fill="#00ffa3" text-anchor="middle">1</text>
      <text x="76" y="32" font-family="Space Grotesk" font-weight="600" font-size="15" fill="#fdfbfe">Blockchain Basics</text>
      <text x="76" y="48" font-family="Inter" font-size="12" fill="#ababad">8 lessons • 45 min</text>
      <!-- Progress bar -->
      <rect x="76" y="60" width="200" height="4" rx="2" fill="#1e2022"/>
      <rect x="76" y="60" width="200" height="4" rx="2" fill="#00ffa3"/>
      <rect x="284" y="52" width="60" height="22" rx="11" fill="#00ffa3" opacity="0.12"/>
      <text x="314" y="67" font-family="Inter" font-weight="500" font-size="10" fill="#00ffa3" text-anchor="middle">Complete</text>
    </g>

    <!-- Stat Card -->
    <text x="380" y="40" font-family="Inter" font-weight="500" font-size="12" fill="#ababad">Stat Card</text>
    <g transform="translate(380,50)">
      <rect width="160" height="80" rx="12" fill="#121316" stroke="#47484a66" stroke-width="1"/>
      <text x="16" y="28" font-family="Inter" font-size="12" fill="#ababad">Total Users</text>
      <text x="16" y="52" font-family="DM Mono" font-size="24" fill="#fdfbfe">1,247</text>
      <text x="16" y="68" font-family="DM Mono" font-size="11" fill="#00ffa3">+12% this week</text>
    </g>
  </g>

  <!-- ==================== SECTION: INPUTS ==================== -->
  <g id="inputs" transform="translate(32,600)">
    <text x="0" y="0" font-family="Space Grotesk" font-weight="600" font-size="18" fill="#fdfbfe">Inputs</text>
    <line x1="0" y1="10" x2="736" y2="10" stroke="#47484a66" stroke-width="1"/>

    <!-- Search Input -->
    <text x="0" y="40" font-family="Inter" font-weight="500" font-size="12" fill="#ababad">Search (pill)</text>
    <rect x="0" y="50" width="358" height="44" rx="22" fill="#1e2022"/>
    <circle cx="24" cy="72" r="8" fill="none" stroke="#ababad" stroke-width="1.5"/>
    <line x1="30" y1="78" x2="34" y2="82" stroke="#ababad" stroke-width="1.5" stroke-linecap="round"/>
    <text x="44" y="77" font-family="Inter" font-size="14" fill="#ababad">Search tokens...</text>

    <!-- Number Input -->
    <text x="380" y="40" font-family="Inter" font-weight="500" font-size="12" fill="#ababad">Number Input (Trade)</text>
    <text x="380" y="60" font-family="Inter" font-weight="500" font-size="12" fill="#ababad">Amount</text>
    <rect x="380" y="66" width="280" height="48" rx="8" fill="#1e2022" stroke="#47484a66" stroke-width="1"/>
    <text x="396" y="96" font-family="DM Mono" font-size="16" fill="#ababad">0.00</text>
    <text x="644" y="96" font-family="Inter" font-weight="500" font-size="14" fill="#fdfbfe" text-anchor="end">SOL</text>

    <!-- Slider -->
    <text x="0" y="126" font-family="Inter" font-weight="500" font-size="12" fill="#ababad">Percentage Slider</text>
    <rect x="0" y="146" width="358" height="4" rx="2" fill="#1e2022"/>
    <rect x="0" y="146" width="180" height="4" rx="2" fill="#00ffa3"/>
    <circle cx="180" cy="148" r="10" fill="#00ffa3"/>
    <text x="0" y="178" font-family="Inter" font-size="11" fill="#ababad">25%</text>
    <text x="120" y="178" font-family="Inter" font-size="11" fill="#fdfbfe">50%</text>
    <text x="240" y="178" font-family="Inter" font-size="11" fill="#ababad">75%</text>
    <text x="342" y="178" font-family="Inter" font-size="11" fill="#ababad" text-anchor="end">100%</text>
  </g>

  <!-- ==================== SECTION: NAVIGATION ==================== -->
  <g id="navigation" transform="translate(32,840)">
    <text x="0" y="0" font-family="Space Grotesk" font-weight="600" font-size="18" fill="#fdfbfe">Navigation</text>
    <line x1="0" y1="10" x2="736" y2="10" stroke="#47484a66" stroke-width="1"/>

    <!-- Bottom Tab Bar -->
    <text x="0" y="40" font-family="Inter" font-weight="500" font-size="12" fill="#ababad">Bottom Tab Bar (56px + safe area)</text>
    <g transform="translate(0,50)">
      <rect width="390" height="56" rx="0" fill="#121316"/>
      <line x1="0" y1="0" x2="390" y2="0" stroke="#47484a66" stroke-width="1"/>
      <!-- Home active -->
      <rect x="23" y="8" width="48" height="48" fill="transparent"/>
      <rect x="37" y="10" width="20" height="16" rx="3" fill="#00ffa3"/>
      <text x="47" y="42" font-family="Inter" font-weight="600" font-size="10" fill="#00ffa3" text-anchor="middle">Home</text>
      <!-- Learn -->
      <rect x="101" y="8" width="48" height="48" fill="transparent"/>
      <rect x="115" y="10" width="20" height="16" rx="3" stroke="#ababad" stroke-width="1.5" fill="none"/>
      <text x="125" y="42" font-family="Inter" font-size="10" fill="#ababad" text-anchor="middle">Learn</text>
      <!-- Market -->
      <rect x="179" y="8" width="48" height="48" fill="transparent"/>
      <polyline points="193,26 198,16 203,22 208,12 213,20" stroke="#ababad" stroke-width="1.5" fill="none" stroke-linecap="round"/>
      <text x="203" y="42" font-family="Inter" font-size="10" fill="#ababad" text-anchor="middle">Market</text>
      <!-- Trade -->
      <rect x="257" y="8" width="48" height="48" fill="transparent"/>
      <path d="M271,22 L281,12 L291,22" stroke="#ababad" stroke-width="1.5" fill="none" stroke-linecap="round"/>
      <text x="281" y="42" font-family="Inter" font-size="10" fill="#ababad" text-anchor="middle">Trade</text>
      <!-- Portfolio -->
      <rect x="335" y="8" width="48" height="48" fill="transparent"/>
      <circle cx="359" cy="18" r="8" stroke="#ababad" stroke-width="1.5" fill="none"/>
      <text x="359" y="42" font-family="Inter" font-size="10" fill="#ababad" text-anchor="middle">Portfolio</text>
    </g>

    <!-- Header -->
    <text x="0" y="140" font-family="Inter" font-weight="500" font-size="12" fill="#ababad">Header Bar</text>
    <g transform="translate(0,150)">
      <rect width="390" height="52" fill="#0d0e10"/>
      <circle cx="24" cy="26" r="14" fill="#00ffa3" opacity="0.15"/>
      <text x="22" y="31" font-family="Space Grotesk" font-weight="700" font-size="14" fill="#00ffa3" text-anchor="middle">L</text>
      <text x="44" y="31" font-family="Space Grotesk" font-weight="700" font-size="18" fill="#fdfbfe">Limer's</text>
      <rect x="272" y="12" width="72" height="28" rx="14" fill="#1e2022" stroke="#47484a66" stroke-width="1"/>
      <text x="308" y="30" font-family="DM Mono" font-size="11" fill="#ababad" text-anchor="middle">7xK..3f</text>
      <g transform="translate(356,18)">
        <rect y="0" width="18" height="2" rx="1" fill="#fdfbfe"/>
        <rect y="6" width="18" height="2" rx="1" fill="#fdfbfe"/>
        <rect y="12" width="12" height="2" rx="1" fill="#fdfbfe"/>
      </g>
    </g>
  </g>

  <!-- ==================== SECTION: FEEDBACK ==================== -->
  <g id="feedback" transform="translate(32,1100)">
    <text x="0" y="0" font-family="Space Grotesk" font-weight="600" font-size="18" fill="#fdfbfe">Feedback</text>
    <line x1="0" y1="10" x2="736" y2="10" stroke="#47484a66" stroke-width="1"/>

    <!-- Toast -->
    <text x="0" y="40" font-family="Inter" font-weight="500" font-size="12" fill="#ababad">Toast (Success)</text>
    <g transform="translate(0,50)">
      <rect width="300" height="48" rx="12" fill="#121316" stroke="#00ffa3" stroke-width="1"/>
      <circle cx="24" cy="24" r="10" fill="#00ffa3" opacity="0.2"/>
      <text x="24" y="29" font-family="Inter" font-weight="700" font-size="12" fill="#00ffa3" text-anchor="middle">&#x2713;</text>
      <text x="44" y="29" font-family="Inter" font-weight="500" font-size="13" fill="#fdfbfe">Trade executed successfully</text>
    </g>

    <!-- Toast Error -->
    <text x="320" y="40" font-family="Inter" font-weight="500" font-size="12" fill="#ababad">Toast (Error)</text>
    <g transform="translate(320,50)">
      <rect width="300" height="48" rx="12" fill="#121316" stroke="#ff716c" stroke-width="1"/>
      <circle cx="24" cy="24" r="10" fill="#ff716c" opacity="0.2"/>
      <text x="24" y="29" font-family="Inter" font-weight="700" font-size="12" fill="#ff716c" text-anchor="middle">!</text>
      <text x="44" y="29" font-family="Inter" font-weight="500" font-size="13" fill="#fdfbfe">Insufficient balance</text>
    </g>

    <!-- Badge -->
    <text x="0" y="126" font-family="Inter" font-weight="500" font-size="12" fill="#ababad">Badges</text>
    <rect x="0" y="136" width="60" height="22" rx="11" fill="#00ffa3" opacity="0.12"/>
    <text x="30" y="151" font-family="Inter" font-weight="500" font-size="10" fill="#00ffa3" text-anchor="middle">Complete</text>

    <rect x="68" y="136" width="72" height="22" rx="11" fill="#bf81ff" opacity="0.12"/>
    <text x="104" y="151" font-family="Inter" font-weight="500" font-size="10" fill="#bf81ff" text-anchor="middle">In Progress</text>

    <rect x="148" y="136" width="56" height="22" rx="11" fill="#FFCA3A" opacity="0.12"/>
    <text x="176" y="151" font-family="Inter" font-weight="500" font-size="10" fill="#FFCA3A" text-anchor="middle">Locked</text>

    <rect x="212" y="136" width="44" height="22" rx="11" fill="#ff716c" opacity="0.12"/>
    <text x="234" y="151" font-family="Inter" font-weight="500" font-size="10" fill="#ff716c" text-anchor="middle">Error</text>

    <!-- Skeleton -->
    <text x="0" y="190" font-family="Inter" font-weight="500" font-size="12" fill="#ababad">Skeleton Loading</text>
    <g transform="translate(0,200)">
      <rect width="358" height="56" rx="12" fill="#121316"/>
      <circle cx="28" cy="28" r="16" fill="#1e2022"/>
      <rect x="52" y="10" width="100" height="12" rx="4" fill="#1e2022"/>
      <rect x="52" y="30" width="60" height="10" rx="4" fill="#1e2022"/>
      <rect x="260" y="14" width="80" height="12" rx="4" fill="#1e2022"/>
      <rect x="280" y="34" width="60" height="10" rx="4" fill="#1e2022"/>
    </g>

    <!-- Offline Banner -->
    <text x="0" y="290" font-family="Inter" font-weight="500" font-size="12" fill="#ababad">Offline Banner</text>
    <g transform="translate(0,300)">
      <rect width="390" height="36" rx="0" fill="#FFCA3A" opacity="0.12"/>
      <text x="16" y="22" font-family="Inter" font-weight="500" font-size="13" fill="#FFCA3A">You're offline — Prices from 2 min ago</text>
      <text x="374" y="22" font-family="Inter" font-weight="600" font-size="12" fill="#FFCA3A" text-anchor="end">Retry</text>
    </g>
  </g>

  <!-- ==================== SECTION: DATA DISPLAY ==================== -->
  <g id="data-display" transform="translate(32,1480)">
    <text x="0" y="0" font-family="Space Grotesk" font-weight="600" font-size="18" fill="#fdfbfe">Data Display</text>
    <line x1="0" y1="10" x2="736" y2="10" stroke="#47484a66" stroke-width="1"/>

    <!-- Chart Frame -->
    <text x="0" y="40" font-family="Inter" font-weight="500" font-size="12" fill="#ababad">Chart Frame (TradingView placeholder)</text>
    <g transform="translate(0,50)">
      <rect width="360" height="160" rx="12" fill="#121316" stroke="#47484a66" stroke-width="1" stroke-dasharray="4,4"/>
      <text x="180" y="86" font-family="Inter" font-size="14" fill="#ababad" text-anchor="middle">TradingView Chart</text>
    </g>

    <!-- Progress Ring -->
    <text x="400" y="40" font-family="Inter" font-weight="500" font-size="12" fill="#ababad">Progress Ring</text>
    <g transform="translate(440,120)">
      <circle cx="0" cy="0" r="40" fill="none" stroke="#1e2022" stroke-width="6"/>
      <circle cx="0" cy="0" r="40" fill="none" stroke="#00ffa3" stroke-width="6" stroke-dasharray="88 163" stroke-dashoffset="63" stroke-linecap="round"/>
      <text x="0" y="-4" font-family="DM Mono" font-size="18" fill="#fdfbfe" text-anchor="middle">35%</text>
      <text x="0" y="14" font-family="Inter" font-size="10" fill="#ababad" text-anchor="middle">12 of 34</text>
    </g>

    <!-- Sparkline -->
    <text x="540" y="40" font-family="Inter" font-weight="500" font-size="12" fill="#ababad">Sparkline (48px wide)</text>
    <g transform="translate(540,60)">
      <text x="0" y="0" font-family="Inter" font-size="10" fill="#ababad">Up trend:</text>
      <polyline points="0,24 8,18 16,20 24,12 32,8 40,14 48,6" stroke="#00ffa3" stroke-width="1.5" fill="none"/>
      <text x="70" y="0" font-family="Inter" font-size="10" fill="#ababad">Down trend:</text>
      <polyline points="70,8 78,12 86,18 94,14 102,20 110,22 118,24" stroke="#ff716c" stroke-width="1.5" fill="none"/>
      <text x="140" y="0" font-family="Inter" font-size="10" fill="#ababad">Flat:</text>
      <polyline points="140,16 148,16 156,16 164,16 172,16 180,16 188,16" stroke="#ababad" stroke-width="1.5" fill="none"/>
    </g>
  </g>

  <!-- ==================== COLOR SWATCHES ==================== -->
  <g id="color-swatches" transform="translate(32,1700)">
    <text x="0" y="0" font-family="Space Grotesk" font-weight="600" font-size="18" fill="#fdfbfe">Color Palette</text>
    <line x1="0" y1="10" x2="736" y2="10" stroke="#47484a66" stroke-width="1"/>

    <g transform="translate(0,24)">
      <rect width="60" height="40" rx="6" fill="#0d0e10" stroke="#47484a66" stroke-width="1"/>
      <text x="30" y="56" font-family="DM Mono" font-size="9" fill="#ababad" text-anchor="middle">night</text>

      <rect x="68" width="60" height="40" rx="6" fill="#121316"/>
      <text x="98" y="56" font-family="DM Mono" font-size="9" fill="#ababad" text-anchor="middle">night-2</text>

      <rect x="136" width="60" height="40" rx="6" fill="#1e2022"/>
      <text x="166" y="56" font-family="DM Mono" font-size="9" fill="#ababad" text-anchor="middle">night-3</text>

      <rect x="204" width="60" height="40" rx="6" fill="#00ffa3"/>
      <text x="234" y="56" font-family="DM Mono" font-size="9" fill="#ababad" text-anchor="middle">sea</text>

      <rect x="272" width="60" height="40" rx="6" fill="#bf81ff"/>
      <text x="302" y="56" font-family="DM Mono" font-size="9" fill="#ababad" text-anchor="middle">coral</text>

      <rect x="340" width="60" height="40" rx="6" fill="#FFCA3A"/>
      <text x="370" y="56" font-family="DM Mono" font-size="9" fill="#ababad" text-anchor="middle">sun</text>

      <rect x="408" width="60" height="40" rx="6" fill="#ff716c"/>
      <text x="438" y="56" font-family="DM Mono" font-size="9" fill="#ababad" text-anchor="middle">down</text>

      <rect x="476" width="60" height="40" rx="6" fill="#2D9B56"/>
      <text x="506" y="56" font-family="DM Mono" font-size="9" fill="#ababad" text-anchor="middle">palm</text>

      <rect x="544" width="60" height="40" rx="6" fill="#fdfbfe"/>
      <text x="574" y="56" font-family="DM Mono" font-size="9" fill="#ababad" text-anchor="middle">txt</text>

      <rect x="612" width="60" height="40" rx="6" fill="#ababad"/>
      <text x="642" y="56" font-family="DM Mono" font-size="9" fill="#ababad" text-anchor="middle">txt-2</text>
    </g>
  </g>
</svg>